<svg width="170" height="40" viewBox="0 0 170 40" fill="none" xmlns="http://www.w3.org/2000/svg">
  <!-- Simple circle with flat color -->
  <circle cx="20" cy="20" r="16" fill="#4F46E5"/>
  
  <!-- Single minimalist sound wave -->
  <path d="M13 16C13 16 16.5 24 20 24C23.5 24 27 16 27 16" stroke="white" stroke-width="2" stroke-linecap="round"/>
  
  <!-- Ultra clean typography -->
  <path d="M47 23.32V11.4H53.6C54.5867 11.4 55.44 11.6 56.16 12C56.8933 12.3867 57.4667 12.9267 57.88 13.62C58.2933 14.3133 58.5 15.1 58.5 15.98C58.5 16.86 58.2933 17.6467 57.88 18.34C57.4667 19.02 56.8933 19.56 56.16 19.96C55.44 20.3467 54.5867 20.54 53.6 20.54H50.42V23.32H47ZM50.42 17.56H53.02C53.4733 17.56 53.8267 17.4267 54.08 17.16C54.3467 16.8933 54.48 16.5267 54.48 16.06C54.48 15.5933 54.3467 15.2267 54.08 14.96C53.8267 14.6933 53.4733 14.56 53.02 14.56H50.42V17.56Z" fill="#111827"/>
  <path d="M68.8039 17.4C68.8039 18.92 68.3705 20.1267 67.5039 21.02C66.6372 21.9 65.4439 22.34 63.9239 22.34C62.4039 22.34 61.2105 21.9 60.3439 21.02C59.4772 20.1267 59.0439 18.92 59.0439 17.4C59.0439 15.88 59.4772 14.6733 60.3439 13.78C61.2105 12.8867 62.4039 12.44 63.9239 12.44C65.4439 12.44 66.6372 12.8867 67.5039 13.78C68.3705 14.6733 68.8039 15.88 68.8039 17.4ZM63.9239 19.84C64.5372 19.84 65.0239 19.64 65.3839 19.24C65.7439 18.8267 65.9239 18.2133 65.9239 17.4C65.9239 16.5867 65.7439 15.9733 65.3839 15.56C65.0239 15.1467 64.5372 14.94 63.9239 14.94C63.3105 14.94 62.8239 15.1467 62.4639 15.56C62.1039 15.9733 61.9239 16.5867 61.9239 17.4C61.9239 18.2133 62.1039 18.8267 62.4639 19.24C62.8239 19.64 63.3105 19.84 63.9239 19.84Z" fill="#111827"/>
  <path d="M77.5845 12.44C78.4779 12.44 79.2645 12.6267 79.9445 13C80.6245 13.36 81.1579 13.8733 81.5445 14.54C81.9312 15.1933 82.1245 15.9667 82.1245 16.86C82.1245 17.7533 81.9312 18.5267 81.5445 19.18C81.1579 19.8333 80.6245 20.3467 79.9445 20.72C79.2645 21.08 78.4779 21.26 77.5845 21.26C76.1845 21.26 75.1179 20.7533 74.3845 19.74V23.32H71.7245V12.6H74.3245V14.08C74.6712 13.5733 75.1179 13.1933 75.6645 12.94C76.2245 12.6733 76.8645 12.54 77.5845 12.54V12.44ZM76.8645 18.88C77.5179 18.88 78.0379 18.6867 78.4245 18.3C78.8112 17.9133 79.0045 17.3933 79.0045 16.74C79.0045 16.0867 78.8112 15.5667 78.4245 15.18C78.0379 14.7933 77.5179 14.6 76.8645 14.6C76.2112 14.6 75.6912 14.7933 75.3045 15.18C74.9179 15.5667 74.7245 16.0867 74.7245 16.74C74.7245 17.3933 74.9179 17.9133 75.3045 18.3C75.6912 18.6867 76.2112 18.88 76.8645 18.88Z" fill="#111827"/>
  <path d="M91.1686 16.42L89.7286 16.98L89.5486 14.96L93.1686 13.02H93.8086V22H91.1686V16.42Z" fill="#111827"/>
  <path d="M99.6508 22.2C98.9175 22.2 98.2642 22.0867 97.6908 21.86C97.1308 21.62 96.6842 21.3067 96.3508 20.92C96.0308 20.52 95.8508 20.08 95.8108 19.6H98.4508C98.5042 19.88 98.6508 20.1133 98.8908 20.3C99.1308 20.4867 99.4242 20.58 99.7708 20.58C100.051 20.58 100.264 20.5133 100.411 20.38C100.571 20.2467 100.651 20.0867 100.651 19.9C100.651 19.66 100.531 19.4867 100.291 19.38C100.051 19.26 99.6375 19.1267 99.0508 18.98C98.4108 18.82 97.8842 18.6533 97.4708 18.48C97.0575 18.3067 96.6975 18.04 96.3908 17.68C96.0842 17.32 95.9308 16.84 95.9308 16.24C95.9308 15.6933 96.0708 15.2067 96.3508 14.78C96.6442 14.3533 97.0708 14.0267 97.6308 13.8C98.1908 13.56 98.8508 13.44 99.6108 13.44C100.731 13.44 101.598 13.7067 102.211 14.24C102.824 14.76 103.171 15.4667 103.251 16.36H100.831C100.791 16.08 100.658 15.8667 100.431 15.72C100.217 15.5733 99.9308 15.5 99.5708 15.5C99.3308 15.5 99.1442 15.5667 99.0108 15.7C98.8775 15.82 98.8108 15.98 98.8108 16.18C98.8108 16.42 98.9308 16.6 99.1708 16.72C99.4242 16.84 99.8242 16.96 100.371 17.08C101.024 17.24 101.544 17.4067 101.931 17.58C102.318 17.7533 102.651 18.02 102.931 18.38C103.224 18.7267 103.371 19.2 103.371 19.8C103.371 20.32 103.231 20.7933 102.951 21.22C102.671 21.6467 102.251 21.9867 101.691 22.24C101.131 22.48 100.451 22.6 99.6508 22.6V22.2Z" fill="#111827"/>
  <path d="M113.618 12.6V22H111.018V21.22C110.738 21.5 110.391 21.72 109.978 21.88C109.565 22.04 109.125 22.12 108.658 22.12C107.991 22.12 107.398 21.98 106.878 21.7C106.371 21.4067 105.971 20.9733 105.678 20.4C105.398 19.8267 105.258 19.1267 105.258 18.3V12.6H107.918V17.86C107.918 18.3933 108.045 18.8067 108.298 19.1C108.551 19.3933 108.911 19.54 109.378 19.54C109.845 19.54 110.205 19.3933 110.458 19.1C110.711 18.8067 110.838 18.3933 110.838 17.86V12.6H113.618Z" fill="#111827"/>
  <path d="M125.035 17.4C125.035 18.92 124.601 20.1267 123.735 21.02C122.868 21.9 121.675 22.34 120.155 22.34C118.635 22.34 117.441 21.9 116.575 21.02C115.708 20.1267 115.275 18.92 115.275 17.4C115.275 15.88 115.708 14.6733 116.575 13.78C117.441 12.8867 118.635 12.44 120.155 12.44C121.675 12.44 122.868 12.8867 123.735 13.78C124.601 14.6733 125.035 15.88 125.035 17.4ZM120.155 19.84C120.768 19.84 121.255 19.64 121.615 19.24C121.975 18.8267 122.155 18.2133 122.155 17.4C122.155 16.5867 121.975 15.9733 121.615 15.56C121.255 15.1467 120.768 14.94 120.155 14.94C119.541 14.94 119.055 15.1467 118.695 15.56C118.335 15.9733 118.155 16.5867 118.155 17.4C118.155 18.2133 118.335 18.8267 118.695 19.24C119.055 19.64 119.541 19.84 120.155 19.84Z" fill="#111827"/>
  
  <!-- Number 9 -->
  <path d="M134.286 14.1429C136.75 14.1429 138.75 15.9286 138.75 19.2143C138.75 22.5 136.75 24.2857 134.286 24.2857C132.929 24.2857 131.714 23.6429 131.036 22.5714V27.8571H128.75V14.2857H131.036V15.8571C131.714 14.7857 132.929 14.1429 134.286 14.1429ZM133.571 22.1429C135.036 22.1429 136.214 21.1429 136.214 19.2143C136.214 17.2857 135.036 16.2857 133.571 16.2857C132.107 16.2857 130.929 17.2857 130.929 19.2143C130.929 21.1429 132.107 22.1429 133.571 22.1429Z" fill="#4F46E5"/>
</svg> 